# xmcd CD database file
#
# Track frame offsets:
#	150
#	21244
#	41828
#	65344
#	85371
#	112909
#	175728
#	197662
#	220572
#	239885
#	256847
#	274689
#	294703
#
# Disc length: 4597 seconds
#
# Revision: 0
# Processed by: cddbd v1.5.2PL0 Copyright (c) Steve Scherf et al.
# Submitted via: CDex 1.51
#
DISCID=bd11f30d
DTITLE=Stanley Clarke - Journey To Love_1975_Rocks Pebbles And Sand - 1980
DYEAR=1975
DGENRE=Jazz
TTITLE0=Silly Putty
TTITLE1=Journey To Love
TTITLE2=Hello Jeff
TTITLE3=Song To John Part 1
TTITLE4=Song To John Part 2
TTITLE5=Concerto For Jazz Rock Orchestra
TTITLE6=Danger Street
TTITLE7=All Hell Broke Loose
TTITLE8=Rocks Pebbles And Sand
TTITLE9=Underestimation
TTITLE10=You Me Together
TTITLE11=We Supply
TTITLE12=B3TheStoryManAndWomanPart 1a2a3 11 08 
EXTD=YEAR: 1975
EXTT0=
EXTT1=
EXTT2=
EXTT3=
EXTT4=
EXTT5=
EXTT6=
EXTT7=
EXTT8=
EXTT9=
EXTT10=
EXTT11=
EXTT12=
PLAYORDER=
